<?xml version="1.0" encoding="UTF-8" standalone="no" ?>
<!DOCTYPE svg PUBLIC "-//W3C//DTD SVG 1.1//EN" "http://www.w3.org/Graphics/SVG/1.1/DTD/svg11.dtd">
<svg xmlns="http://www.w3.org/2000/svg" xmlns:xlink="http://www.w3.org/1999/xlink" version="1.1" width="24" height="24" viewBox="0 0 24 24" xml:space="preserve">
<desc>Created with Fabric.js 5.3.0</desc>
<defs>
</defs>
<g transform="matrix(1 0 0 1 22.3517672953 22.1128831731)" id="B9oKsdS2SlyRdO700dP7F"  >
<g style=""   >
		<g transform="matrix(1.8333333333 0 0 1.8333333333 0 0)" id="dVatdTkcxtVXc24M8Ckqt"  >
<path style="stroke: none; stroke-width: 1.5; stroke-dasharray: none; stroke-linecap: round; stroke-dashoffset: 0; stroke-linejoin: round; stroke-miterlimit: 4; fill: none; fill-rule: nonzero; opacity: 1;"  transform=" translate(-12, -12)" d="M 0 0 L 24 0 L 24 24 L 0 24 z" stroke-linecap="round" />
</g>
		<g transform="matrix(0.6888888889 0 0 0.6888888889 -0.0111462972 -5.5970149254)" id="JJCdN5CFQkU-bCZiCoiKm"  >
<path style="stroke: rgb(0,0,0); stroke-width: 3; stroke-dasharray: none; stroke-linecap: round; stroke-dashoffset: 0; stroke-linejoin: round; stroke-miterlimit: 4; fill: none; fill-rule: nonzero; opacity: 1;"  transform=" translate(-12, -12)" d="M 3 3 M 3 5 C 3 3.895430500338413 3.895430500338413 3 5 3 L 19 3 C 20.104569499661586 3 21 3.8954305003384126 21 5 L 21 19 C 21 20.104569499661586 20.104569499661586 21 19 21 L 5 21 C 3.895430500338413 21 3 20.104569499661586 3 19 z" stroke-linecap="round" />
</g>
		<g transform="matrix(0.5996064765 0 0 0.5996064765 -0.0492019113 8.0011499715)" id="E1w5PSq7hY_YZ50AtodoY"  >
<path style="stroke: none; stroke-width: 1.5; stroke-dasharray: none; stroke-linecap: round; stroke-dashoffset: 0; stroke-linejoin: round; stroke-miterlimit: 4; fill: none; fill-rule: nonzero; opacity: 1;"  transform=" translate(-12, -12)" d="M 0 0 L 24 0 L 24 24 L 0 24 z" stroke-linecap="round" />
</g>
		<g transform="matrix(0.8047350079 0 0 0.5996064765 -0.0492019113 4.4035111124)" id="x806zHYZhnhAnRTFU5SS3"  >
<path style="stroke: rgb(0,0,0); stroke-width: 3; stroke-dasharray: none; stroke-linecap: round; stroke-dashoffset: 0; stroke-linejoin: round; stroke-miterlimit: 4; fill: none; fill-rule: nonzero; opacity: 1;"  transform=" translate(-12, -6)" d="M 4 6 L 20 6" stroke-linecap="round" />
</g>
		<g transform="matrix(0.8047350079 0 0 0.5996064765 -0.0492019113 8.0011499715)" id="Z52TtBOI_P-bfRyY32awy"  >
<path style="stroke: rgb(0,0,0); stroke-width: 3; stroke-dasharray: none; stroke-linecap: round; stroke-dashoffset: 0; stroke-linejoin: round; stroke-miterlimit: 4; fill: none; fill-rule: nonzero; opacity: 1;"  transform=" translate(-12, -12)" d="M 4 12 L 20 12" stroke-linecap="round" />
</g>
		<g transform="matrix(0.7295212131 0 0 0.5996064765 -2.2227753886 11.5987888306)" id="Ub_O0suqZtvMNo7Z-QuuP"  >
<path style="stroke: rgb(0,0,0); stroke-width: 3; stroke-dasharray: none; stroke-linecap: round; stroke-dashoffset: 0; stroke-linejoin: round; stroke-miterlimit: 4; fill: none; fill-rule: nonzero; opacity: 1;"  transform=" translate(-10, -18)" d="M 4 18 L 16 18" stroke-linecap="round" />
</g>
		<g transform="matrix(1.8333333333 0 0 1.8333333333 0 0)" id="lHeXjOQKHpmCzBz9soK5U"  >
<path style="stroke: none; stroke-width: 1.5; stroke-dasharray: none; stroke-linecap: round; stroke-dashoffset: 0; stroke-linejoin: round; stroke-miterlimit: 4; fill: none; fill-rule: nonzero; opacity: 1;"  transform=" translate(-12, -12)" d="M 0 0 L 24 0 L 24 24 L 0 24 z" stroke-linecap="round" />
</g>
		<g transform="matrix(2.357143 0 0 2.3064516129 -0.0111462972 0)" id="ZyOVvC6sW12NCJzE6iNEX"  >
<path style="stroke: rgb(0,0,0); stroke-width: 1.5; stroke-dasharray: none; stroke-linecap: round; stroke-dashoffset: 0; stroke-linejoin: round; stroke-miterlimit: 4; fill: none; fill-rule: nonzero; opacity: 1;"  transform=" translate(-12, -12)" d="M 7 5 M 7 6 C 7 5.447715250169207 7.447715250169207 5 8 5 L 16 5 C 16.552284749830793 5 17 5.447715250169207 17 6 L 17 18 C 17 18.552284749830793 16.552284749830793 19 16 19 L 8 19 C 7.447715250169207 19 7 18.552284749830793 7 18 z" stroke-linecap="round" />
</g>
</g>
</g>
</svg>